solid 2D_cantilever_FIX
   facet normal 0.000000e+000 0.000000e+000 1.000000e+000
      outer loop
         vertex -2.000000e+000 4.000000e+001 0.000000e+000
         vertex -2.000000e+000 -2.449294e-016 0.000000e+000
         vertex 0.000000e+000 4.000000e+001 0.000000e+000
      endloop
   endfacet
   facet normal 0.000000e+000 0.000000e+000 1.000000e+000
      outer loop
         vertex 0.000000e+000 4.000000e+001 0.000000e+000
         vertex -2.000000e+000 -2.449294e-016 0.000000e+000
         vertex 0.000000e+000 0.000000e+000 0.000000e+000
      endloop
   endfacet
endsolid