solid 3D_cantilever_PRT10
   facet normal 0.000000e+000 0.000000e+000 1.000000e+000
      outer loop
         vertex 6.400000e+001 -2.800000e+001 0.000000e+000
         vertex 6.400000e+001 6.800000e+001 0.000000e+000
         vertex 0.000000e+000 -2.800000e+001 0.000000e+000
      endloop
   endfacet
   facet normal 0.000000e+000 0.000000e+000 1.000000e+000
      outer loop
         vertex 0.000000e+000 -2.800000e+001 0.000000e+000
         vertex 6.400000e+001 6.800000e+001 0.000000e+000
         vertex 0.000000e+000 6.800000e+001 0.000000e+000
      endloop
   endfacet
endsolid