solid 2D_cantilever_PRT11
   facet normal 0.000000e+000 0.000000e+000 1.000000e+000
      outer loop
         vertex 1.1200000e+002 -3.600000e+001 0.000000e+000
         vertex 1.1200000e+002 7.600000e+001 0.000000e+000
         vertex 0.000000e+000 -3.600000e+001 0.000000e+000
      endloop
   endfacet
   facet normal 0.000000e+000 0.000000e+000 1.000000e+000
      outer loop
         vertex 0.000000e+000 -3.600000e+001 0.000000e+000
         vertex 1.1200000e+002 7.600000e+001 0.000000e+000
         vertex 0.000000e+000 7.600000e+001 0.000000e+000
      endloop
   endfacet
endsolid
