solid 2D_cantilever_PRT5
   facet normal 0.000000e+000 0.000000e+000 1.000000e+000
      outer loop
         vertex 5.415333e+001 1.982894e+001 0.000000e+000
         vertex 6.000000e+001 2.000000e+001 0.000000e+000
         vertex 6.000000e+001 4.000000e+001 0.000000e+000
      endloop
   endfacet
   facet normal 0.000000e+000 0.000000e+000 1.000000e+000
      outer loop
         vertex 5.415333e+001 1.982894e+001 0.000000e+000
         vertex 6.000000e+001 4.000000e+001 0.000000e+000
         vertex 4.832666e+001 1.931633e+001 0.000000e+000
      endloop
   endfacet
   facet normal 0.000000e+000 0.000000e+000 1.000000e+000
      outer loop
         vertex 0.000000e+000 0.000000e+000 0.000000e+000
         vertex 4.779978e+000 3.371153e+000 0.000000e+000
         vertex 0.000000e+000 4.000000e+001 0.000000e+000
      endloop
   endfacet
   facet normal 0.000000e+000 0.000000e+000 1.000000e+000
      outer loop
         vertex 0.000000e+000 4.000000e+001 0.000000e+000
         vertex 4.779978e+000 3.371153e+000 0.000000e+000
         vertex 9.748878e+000 6.457069e+000 0.000000e+000
      endloop
   endfacet
   facet normal 0.000000e+000 0.000000e+000 1.000000e+000
      outer loop
         vertex 9.748878e+000 6.457069e+000 0.000000e+000
         vertex 1.488970e+001 9.247191e+000 0.000000e+000
         vertex 0.000000e+000 4.000000e+001 0.000000e+000
      endloop
   endfacet
   facet normal 0.000000e+000 0.000000e+000 1.000000e+000
      outer loop
         vertex 0.000000e+000 4.000000e+001 0.000000e+000
         vertex 1.488970e+001 9.247191e+000 0.000000e+000
         vertex 2.018486e+001 1.173197e+001 0.000000e+000
      endloop
   endfacet
   facet normal 0.000000e+000 0.000000e+000 1.000000e+000
      outer loop
         vertex 0.000000e+000 4.000000e+001 0.000000e+000
         vertex 2.018486e+001 1.173197e+001 0.000000e+000
         vertex 2.561624e+001 1.390291e+001 0.000000e+000
      endloop
   endfacet
   facet normal 0.000000e+000 0.000000e+000 1.000000e+000
      outer loop
         vertex 2.561624e+001 1.390291e+001 0.000000e+000
         vertex 3.116526e+001 1.575259e+001 0.000000e+000
         vertex 0.000000e+000 4.000000e+001 0.000000e+000
      endloop
   endfacet
   facet normal 0.000000e+000 0.000000e+000 1.000000e+000
      outer loop
         vertex 0.000000e+000 4.000000e+001 0.000000e+000
         vertex 3.116526e+001 1.575259e+001 0.000000e+000
         vertex 3.681292e+001 1.727466e+001 0.000000e+000
      endloop
   endfacet
   facet normal 0.000000e+000 0.000000e+000 1.000000e+000
      outer loop
         vertex 0.000000e+000 4.000000e+001 0.000000e+000
         vertex 3.681292e+001 1.727466e+001 0.000000e+000
         vertex 6.000000e+001 4.000000e+001 0.000000e+000
      endloop
   endfacet
   facet normal 0.000000e+000 0.000000e+000 1.000000e+000
      outer loop
         vertex 6.000000e+001 4.000000e+001 0.000000e+000
         vertex 3.681292e+001 1.727466e+001 0.000000e+000
         vertex 4.253992e+001 1.846393e+001 0.000000e+000
      endloop
   endfacet
   facet normal 0.000000e+000 0.000000e+000 1.000000e+000
      outer loop
         vertex 6.000000e+001 4.000000e+001 0.000000e+000
         vertex 4.253992e+001 1.846393e+001 0.000000e+000
         vertex 4.832666e+001 1.931633e+001 0.000000e+000
      endloop
   endfacet
endsolid