solid 2D_cantilever_PRT1-2
   facet normal 0.000000e+000 0.000000e+000 1.000000e+000
      outer loop
         vertex 6.500000e+001 -5.000000e+000 0.000000e+000
         vertex 6.500000e+001 4.500000e+001 0.000000e+000
         vertex 0.000000e+000 -5.000000e+000 0.000000e+000
      endloop
   endfacet
   facet normal 0.000000e+000 0.000000e+000 1.000000e+000
      outer loop
         vertex 0.000000e+000 -5.000000e+000 0.000000e+000
         vertex 6.500000e+001 4.500000e+001 0.000000e+000
         vertex 0.000000e+000 4.500000e+001 0.000000e+000
      endloop
   endfacet
endsolid