solid 2D_cantilever_PRT1-3
   facet normal 0.000000e+000 0.000000e+000 1.000000e+000
      outer loop
         vertex 6.400000e+001 -0.800000e+001 0.000000e+000
         vertex 6.400000e+001 4.800000e+001 0.000000e+000
         vertex 0.000000e+000 -0.800000e+001 0.000000e+000
      endloop
   endfacet
   facet normal 0.000000e+000 0.000000e+000 1.000000e+000
      outer loop
         vertex 0.000000e+000 -0.800000e+001 0.000000e+000
         vertex 6.400000e+001 4.800000e+001 0.000000e+000
         vertex 0.000000e+000 4.800000e+001 0.000000e+000
      endloop
   endfacet
endsolid
