solid 2D_cantilever_PRT1-4
   facet normal 0.000000e+000 0.000000e+000 1.000000e+000
      outer loop
         vertex 6.500000e+001 -2.000000e+001 0.000000e+000
         vertex 6.500000e+001 6.000000e+001 0.000000e+000
         vertex 0.000000e+000 -2.000000e+001 0.000000e+000
      endloop
   endfacet
   facet normal 0.000000e+000 0.000000e+000 1.000000e+000
      outer loop
         vertex 0.000000e+000 -2.000000e+001 0.000000e+000
         vertex 6.500000e+001 6.000000e+001 0.000000e+000
         vertex 0.000000e+000 6.000000e+001 0.000000e+000
      endloop
   endfacet
endsolid